<?xml version="1.0" encoding="UTF-8" standalone="no"?>
<!-- Created with Inkscape (http://www.inkscape.org/) -->

<svg
   xmlns:dc="http://purl.org/dc/elements/1.1/"
   xmlns:cc="http://creativecommons.org/ns#"
   xmlns:rdf="http://www.w3.org/1999/02/22-rdf-syntax-ns#"
   xmlns:svg="http://www.w3.org/2000/svg"
   xmlns="http://www.w3.org/2000/svg"
   xmlns:sodipodi="http://sodipodi.sourceforge.net/DTD/sodipodi-0.dtd"
   xmlns:inkscape="http://www.inkscape.org/namespaces/inkscape"
   width="184.14531"
   height="156.75"
   id="svg2"
   version="1.1"
   inkscape:version="0.48.4 r9939"
   sodipodi:docname="ITC.svg">
  <defs
     id="defs4">
    <marker
       inkscape:stockid="Arrow1Mend"
       orient="auto"
       refY="0"
       refX="0"
       id="Arrow1Mend"
       style="overflow:visible">
      <path
         id="path3774"
         d="M 0,0 5,-5 -12.5,0 5,5 0,0 z"
         style="fill-rule:evenodd;stroke:#000000;stroke-width:1pt"
         transform="matrix(-0.4,0,0,-0.4,-4,0)"
         inkscape:connector-curvature="0" />
    </marker>
  </defs>
  <sodipodi:namedview
     id="base"
     pagecolor="#ffffff"
     bordercolor="#666666"
     borderopacity="1.0"
     inkscape:pageopacity="0.0"
     inkscape:pageshadow="2"
     inkscape:zoom="2.8"
     inkscape:cx="117.2399"
     inkscape:cy="62.300869"
     inkscape:document-units="px"
     inkscape:current-layer="layer1"
     showgrid="true"
     inkscape:snap-bbox="false"
     inkscape:snap-grids="true"
     inkscape:snap-to-guides="true"
     fit-margin-top="0"
     fit-margin-left="0"
     fit-margin-right="0"
     fit-margin-bottom="0"
     inkscape:window-width="1920"
     inkscape:window-height="1021"
     inkscape:window-x="0"
     inkscape:window-y="27"
     inkscape:window-maximized="1">
    <inkscape:grid
       type="xygrid"
       id="grid2985"
       empspacing="5"
       visible="true"
       enabled="true"
       snapvisiblegridlinesonly="true"
       originx="-37.104696px"
       originy="-839.5px" />
  </sodipodi:namedview>
  <metadata
     id="metadata7">
    <rdf:RDF>
      <cc:Work
         rdf:about="">
        <dc:format>image/svg+xml</dc:format>
        <dc:type
           rdf:resource="http://purl.org/dc/dcmitype/StillImage" />
        <dc:title />
      </cc:Work>
    </rdf:RDF>
  </metadata>
  <g
     inkscape:label="Layer 1"
     inkscape:groupmode="layer"
     id="layer1"
     transform="translate(-37.104696,-56.112183)">
    <path
       style="fill:none;stroke:#000000;stroke-width:1px;stroke-linecap:butt;stroke-linejoin:miter;stroke-opacity:1;marker-end:url(#Arrow1Mend)"
       d="M 50,212.36218 50,57.362183"
       id="path2989"
       inkscape:connector-curvature="0" />
    <path
       style="fill:none;stroke:#000000;stroke-width:1px;stroke-linecap:butt;stroke-linejoin:miter;stroke-opacity:1;marker-end:url(#Arrow1Mend)"
       d="m 50,87.362183 170,0"
       id="path2991"
       inkscape:connector-curvature="0" />
    <path
       style="fill:none;stroke:#0000ff;stroke-width:2;stroke-linecap:butt;stroke-linejoin:miter;stroke-miterlimit:4;stroke-opacity:1;stroke-dasharray:6, 2;stroke-dashoffset:0"
       d="m 55,206.8571 c 25,0.50508 45,0.50508 60,-5 20,-9.49492 20,-94.49492 35,-99.49492 15,-4.999997 25,-4.999997 45,-5.505073"
       id="path4387"
       inkscape:connector-curvature="0"
       sodipodi:nodetypes="cccc" />
    <path
       style="fill:none;stroke:#f71300;stroke-width:0.5;stroke-linecap:butt;stroke-linejoin:miter;stroke-miterlimit:1;stroke-opacity:1;stroke-dasharray:none;stroke-dashoffset:0"
       d="m 55,92.362183 2,113.999997 1,-113.999997 2,0 1,112.999997 2,-112.999997 2,0 1,113.999997 2,-113.999997 3,0 1,113.999997 2,-113.999997 3,0 1,113.999997 2,-113.999997 3,0 0,113.999997 3,-113.999997 3,0 0,113.999997 3,-113.999997 3,0 1,112.999997 2,-112.999997 3,0 1,111.999997 2,-111.999997 3,0 1,110.999997 2,-110.999997 3,0 1,108.999997 2,-108.999997 3,0 2,102.999997 2,-102.999997 3,0 1,89.999997 3,-89.999997 3,0 2,53.999997 1,-53.999997 3,0 1,29.999997 2,-29.999997 3,0 1,12.999997 1,-12.999997 3,0 1,8.999997 1,-8.999997 3,0 1,7.999997 1,-7.999997 3,0 1,7 1,-7 3,0 1,6 1,-6 3,0 1,5 1,-5 3,0 1,5 1,-5 4,0 1,4 1,-4 3,0 1,5 1,-5 3,0 1,4 1,-4"
       id="path4389"
       inkscape:connector-curvature="0" />
    <text
       xml:space="preserve"
       style="font-size:12px;font-style:normal;font-weight:normal;line-height:125%;letter-spacing:0px;word-spacing:0px;fill:#000000;fill-opacity:1;stroke:none;font-family:Sans"
       x="-177.21605"
       y="46.559818"
       id="text4391"
       sodipodi:linespacing="125%"
       transform="matrix(0.00315765,-0.99999501,0.99999501,0.00315765,0,0)"><tspan
         sodipodi:role="line"
         id="tspan4393"
         x="-177.21605"
         y="46.559818">Energy transfered</tspan></text>
    <text
       xml:space="preserve"
       style="font-size:12px;font-style:normal;font-weight:normal;line-height:125%;letter-spacing:0px;word-spacing:0px;fill:#000000;fill-opacity:1;stroke:none;font-family:Sans"
       x="95"
       y="85.362183"
       id="text4395"
       sodipodi:linespacing="125%"><tspan
         sodipodi:role="line"
         id="tspan4397"
         x="95"
         y="85.362183">Molar ratio</tspan></text>
  </g>
</svg>
