<?xml version="1.0" encoding="UTF-8" standalone="no"?>
<!-- Created with Inkscape (http://www.inkscape.org/) -->

<svg
   xmlns:dc="http://purl.org/dc/elements/1.1/"
   xmlns:cc="http://creativecommons.org/ns#"
   xmlns:rdf="http://www.w3.org/1999/02/22-rdf-syntax-ns#"
   xmlns:svg="http://www.w3.org/2000/svg"
   xmlns="http://www.w3.org/2000/svg"
   xmlns:sodipodi="http://sodipodi.sourceforge.net/DTD/sodipodi-0.dtd"
   xmlns:inkscape="http://www.inkscape.org/namespaces/inkscape"
   width="300"
   height="300"
   id="svg3818"
   version="1.1"
   inkscape:version="0.48.4 r9939"
   sodipodi:docname="ligand.svg"
   inkscape:export-filename="/home/george/Dropbox/LAB/Thesis/Intro/Data/ligand.png"
   inkscape:export-xdpi="100.73"
   inkscape:export-ydpi="100.73">
  <defs
     id="defs3820" />
  <sodipodi:namedview
     id="base"
     pagecolor="#ffffff"
     bordercolor="#666666"
     borderopacity="1.0"
     inkscape:pageopacity="0.0"
     inkscape:pageshadow="2"
     inkscape:zoom="0.98994949"
     inkscape:cx="363.67686"
     inkscape:cy="-29.634622"
     inkscape:document-units="px"
     inkscape:current-layer="layer1"
     showgrid="false"
     fit-margin-top="0"
     fit-margin-left="0"
     fit-margin-right="0"
     fit-margin-bottom="0"
     inkscape:window-width="1920"
     inkscape:window-height="1021"
     inkscape:window-x="0"
     inkscape:window-y="27"
     inkscape:window-maximized="1" />
  <metadata
     id="metadata3823">
    <rdf:RDF>
      <cc:Work
         rdf:about="">
        <dc:format>image/svg+xml</dc:format>
        <dc:type
           rdf:resource="http://purl.org/dc/dcmitype/StillImage" />
        <dc:title></dc:title>
      </cc:Work>
    </rdf:RDF>
  </metadata>
  <g
     inkscape:label="Layer 1"
     inkscape:groupmode="layer"
     id="layer1"
     transform="translate(-322.17149,-0.40968744)">
    <path
       inkscape:connector-curvature="0"
       style="fill:#ff0000;fill-opacity:1;fill-rule:nonzero;stroke:#000000;stroke-width:5;stroke-linejoin:round;stroke-miterlimit:4;stroke-opacity:1;stroke-dasharray:none;stroke-dashoffset:0"
       d="m 508.29141,179.47933 c 0.16824,-5.8e-4 0.3121,-0.11409 0.31152,-0.28232 l -0.0641,-18.53114 -10.56243,0.0365 -0.14918,-43.15599 c -5.9e-4,-0.16824 -0.14534,-0.312 -0.31358,-0.31142 l -28.68733,0.0992 c -0.16824,5.8e-4 -0.28075,0.14523 -0.28017,0.31347 l 0.0408,11.81243 -23.9686,0.0829 c -0.16824,5.8e-4 -0.28075,0.14523 -0.28017,0.31347 l 0.0328,9.49994 c 5.8e-4,0.16824 0.11398,0.28086 0.28222,0.28028 l 23.96861,-0.0829 0.0734,21.24988 -28.31233,0.0979 -0.0118,-3.40623 -2.56249,0.009 0.0758,21.93737 c 5.8e-4,0.16823 0.14523,0.28075 0.31347,0.28016 l 70.09333,-0.2423 z"
       id="rect3799" />
  </g>
</svg>
