<?xml version="1.0" encoding="UTF-8" standalone="no"?>
<!-- Created with Inkscape (http://www.inkscape.org/) -->

<svg
   xmlns:dc="http://purl.org/dc/elements/1.1/"
   xmlns:cc="http://creativecommons.org/ns#"
   xmlns:rdf="http://www.w3.org/1999/02/22-rdf-syntax-ns#"
   xmlns:svg="http://www.w3.org/2000/svg"
   xmlns="http://www.w3.org/2000/svg"
   xmlns:sodipodi="http://sodipodi.sourceforge.net/DTD/sodipodi-0.dtd"
   xmlns:inkscape="http://www.inkscape.org/namespaces/inkscape"
   width="300"
   height="300"
   id="svg2"
   version="1.1"
   inkscape:version="0.48.4 r9939"
   sodipodi:docname="receptor.svg">
  <defs
     id="defs4" />
  <sodipodi:namedview
     id="base"
     pagecolor="#ffffff"
     bordercolor="#666666"
     borderopacity="1.0"
     inkscape:pageopacity="0.0"
     inkscape:pageshadow="2"
     inkscape:zoom="1.979899"
     inkscape:cx="164.74469"
     inkscape:cy="132.86532"
     inkscape:document-units="px"
     inkscape:current-layer="layer1"
     showgrid="false"
     fit-margin-top="100"
     fit-margin-left="100"
     fit-margin-right="100"
     fit-margin-bottom="100"
     inkscape:window-width="1920"
     inkscape:window-height="1021"
     inkscape:window-x="0"
     inkscape:window-y="27"
     inkscape:window-maximized="1" />
  <metadata
     id="metadata7">
    <rdf:RDF>
      <cc:Work
         rdf:about="">
        <dc:format>image/svg+xml</dc:format>
        <dc:type
           rdf:resource="http://purl.org/dc/dcmitype/StillImage" />
        <dc:title />
      </cc:Work>
    </rdf:RDF>
  </metadata>
  <g
     inkscape:label="Layer 1"
     inkscape:groupmode="layer"
     id="layer1"
     transform="translate(-3.57471,-40.86453)">
    <path
       style="fill:#ff0000;fill-opacity:1;fill-rule:nonzero;stroke:#000000;stroke-width:5;stroke-linejoin:round;stroke-miterlimit:4;stroke-opacity:1;stroke-dasharray:none;stroke-dashoffset:0"
       d="m 106.38721,125.52078 c -0.16824,0 -0.3125,0.14426 -0.3125,0.3125 l 0,15.9375 c 0.25,-0.0239 0.49413,-0.0625 0.75,-0.0625 4.60261,0 8.34375,3.9622 8.34375,8.84375 0,4.88155 -3.74114,8.84375 -8.34375,8.84375 -0.25587,0 -0.5,-0.0386 -0.75,-0.0625 l 0,36.9375 49.1875,0 c 0.16824,0 0.3125,0.11301 0.3125,0.28125 l 0,15.5625 c 0,0.16824 -0.14426,0.3125 -0.3125,0.3125 l -49.1875,0 0,25.65625 c 0,0.16824 0.14426,0.28125 0.3125,0.28125 l 45.15625,0 c 0.20235,-6.54613 6.55267,-11.8125 14.375,-11.8125 7.82233,0 14.17265,5.26637 14.375,11.8125 l 32.625,0 c 0.16824,0 0.3125,-0.11301 0.3125,-0.28125 l 0,-24.15625 -8.875,0 c -0.16824,0 -0.3125,-0.11301 -0.3125,-0.28125 l 0,-8.5 c -0.98707,0.1339 -2.00014,0.21875 -3.03125,0.21875 -10.59994,0 -19.1875,-7.37176 -19.1875,-16.4375 0,-9.06574 8.58756,-16.40625 19.1875,-16.40625 1.03111,0 2.04418,0.0848 3.03125,0.21875 l 0,-27.6875 c 0,-0.16824 0.14426,-0.3125 0.3125,-0.3125 l 8.875,0 0,-18.90625 c 0,-0.16824 -0.14426,-0.3125 -0.3125,-0.3125 l -23,0 0,10.34375 c 0,0.16824 -0.14426,0.28125 -0.3125,0.28125 l -5.96875,0 c -0.16824,0 -0.28125,-0.11301 -0.28125,-0.28125 l 0,-10.34375 -28.3125,0 0,21.25 23.96875,0 c 0.16824,0 0.28125,0.11301 0.28125,0.28125 l 0,9.5 c 0,0.16824 -0.11301,0.3125 -0.28125,0.3125 l -23.96875,0 0,11.8125 c 0,0.16824 -0.11301,0.3125 -0.28125,0.3125 l -28.6875,0 c -0.16824,0 -0.3125,-0.14426 -0.3125,-0.3125 l 0,-43.15625 -19.375,0 z"
       id="rect2985"
       inkscape:connector-curvature="0" />
  </g>
</svg>
